<?xml version="1.0" encoding="UTF-8" standalone="no"?>
<!-- Created with Inkscape (http://www.inkscape.org/) -->

<svg
   xmlns:dc="http://purl.org/dc/elements/1.1/"
   xmlns:cc="http://creativecommons.org/ns#"
   xmlns:rdf="http://www.w3.org/1999/02/22-rdf-syntax-ns#"
   xmlns:svg="http://www.w3.org/2000/svg"
   xmlns="http://www.w3.org/2000/svg"
   xmlns:sodipodi="http://sodipodi.sourceforge.net/DTD/sodipodi-0.dtd"
   xmlns:inkscape="http://www.inkscape.org/namespaces/inkscape"
   width="140"
   height="140"
   id="svg2"
   version="1.1"
   inkscape:version="0.48.1 "
   sodipodi:docname="Novo documento 1">
  <defs
     id="defs4" />
  <sodipodi:namedview
     id="base"
     pagecolor="#ffffff"
     bordercolor="#666666"
     borderopacity="1.0"
     inkscape:pageopacity="0.0"
     inkscape:pageshadow="2"
     inkscape:zoom="0.49497475"
     inkscape:cx="231.03427"
     inkscape:cy="223.78654"
     inkscape:document-units="px"
     inkscape:current-layer="layer1"
     showgrid="false"
     inkscape:window-width="1360"
     inkscape:window-height="705"
     inkscape:window-x="-8"
     inkscape:window-y="-8"
     inkscape:window-maximized="1" />
  <metadata
     id="metadata7">
    <rdf:RDF>
      <cc:Work
         rdf:about="">
        <dc:format>image/svg+xml</dc:format>
        <dc:type
           rdf:resource="http://purl.org/dc/dcmitype/StillImage" />
        <dc:title></dc:title>
      </cc:Work>
    </rdf:RDF>
  </metadata>
  <g
     inkscape:label="Camada 1"
     inkscape:groupmode="layer"
     id="layer1"
     transform="translate(0,-912.3622)">
    <g
       id="g2996"
       transform="translate(-331.42857,526.40754)">
      <path
         style="fill:#a45282"
         d="m 364.50003,495.07645 c 0,-17.83333 0.0721,-18.5 2,-18.5 1.66667,0 2,0.66667 2,4 0,3.6 0.25,4 2.5,4 2,0 2.5,0.5 2.5,2.5 0,2.25 0.4,2.5 4,2.5 3.33333,0 4,0.33333 4,2 0,1.77778 0.66667,2 6,2 5.33333,0 6,0.22222 6,2 0,1.66667 -0.66667,2 -4,2 -3.33333,0 -4,0.33333 -4,2 0,1.66667 -0.66667,2 -4,2 -3.33333,0 -4,0.33333 -4,2 0,1.33333 -0.66667,2 -2,2 -1.33333,0 -2,0.66667 -2,2 0,1.46667 -0.66667,2 -2.5,2 -1.83333,0 -2.5,0.53333 -2.5,2 0,1.33333 -0.66667,2 -2,2 -1.92793,0 -2,-0.66667 -2,-18.5 z m 71,16.5 c 0,-1.33333 -0.66667,-2 -2,-2 -1.33333,0 -2,-0.66667 -2,-2 0,-1.46667 -0.66667,-2 -2.5,-2 -1.83333,0 -2.5,-0.53333 -2.5,-2 0,-1.66667 -0.66667,-2 -4,-2 -3.33333,0 -4,-0.33333 -4,-2 0,-1.66667 -0.66667,-2 -4,-2 -3.33333,0 -4,-0.33333 -4,-2 0,-1.66667 0.66667,-2 4,-2 3.33333,0 4,-0.33333 4,-2 0,-1.66667 0.66667,-2 4,-2 3.6,0 4,-0.25 4,-2.5 0,-2 0.5,-2.5 2.5,-2.5 2.45833,0 2.5,-0.13333 2.5,-8 0,-7.33333 0.16667,-8 2,-8 1.33333,0 2,-0.66667 2,-2 0,-1.33333 -0.66667,-2 -2,-2 -1.33333,0 -2,-0.66667 -2,-2 0,-1.33333 0.66667,-2 2,-2 1.79487,0 2,-0.66667 2,-6.5 0,-5.83333 -0.20513,-6.5 -2,-6.5 -1.33333,0 -2,0.66667 -2,2 0,1.7037 -0.66667,2 -4.5,2 l -4.5,0 0,-4 c 0,-3.33333 -0.33333,-4 -2,-4 -1.33333,0 -2,0.66667 -2,2 0,1.93496 -0.66667,2 -20.5,2 -19.83333,0 -20.5,0.065 -20.5,2 0,1.33333 -0.66667,2 -2,2 -1.7037,0 -2,0.66667 -2,4.5 0,4.13333 -0.2037,4.5 -2.5,4.5 -2,0 -2.5,-0.5 -2.5,-2.5 0,-1.83333 -0.53333,-2.5 -2,-2.5 -1.90805,0 -2,-0.66667 -2,-14.5 0,-13.83333 0.0919,-14.5 2,-14.5 1.66667,0 2,-0.66667 2,-4 0,-3.6 0.25,-4 2.5,-4 1.83333,0 2.5,-0.53333 2.5,-2 0,-1.33333 0.66667,-2 2,-2 1.33333,0 2,-0.66667 2,-2 0,-1.33333 0.66667,-2 2,-2 1.33333,0 2,-0.66667 2,-2 0,-1.66667 0.66667,-2 4,-2 3.33333,0 4,-0.33333 4,-2 0,-1.90805 0.66667,-2 14.5,-2 13.83333,0 14.5,0.0919 14.5,2 0,1.66667 0.66667,2 4,2 3.33333,0 4,0.33333 4,2 0,1.46667 0.66667,2 2.5,2 1.83333,0 2.5,0.53333 2.5,2 0,1.33333 0.66667,2 2,2 1.33333,0 2,0.66667 2,2 0,1.33333 0.66667,2 2,2 1.97193,0 2,0.66667 2,47.5 0,46.83333 -0.0281,47.5 -2,47.5 -1.33333,0 -2,-0.66667 -2,-2 z"
         id="path3002"
         inkscape:connector-curvature="0" />
      <path
         style="fill:#764261"
         d="m 364.50003,495.07645 c 0,-17.83333 0.0721,-18.5 2,-18.5 1.66667,0 2,0.66667 2,4 0,3.6 0.25,4 2.5,4 2,0 2.5,0.5 2.5,2.5 0,2.25 0.4,2.5 4,2.5 3.33333,0 4,0.33333 4,2 0,1.77778 0.66667,2 6,2 5.33333,0 6,0.22222 6,2 0,1.66667 -0.66667,2 -4,2 -3.33333,0 -4,0.33333 -4,2 0,1.66667 -0.66667,2 -4,2 -3.33333,0 -4,0.33333 -4,2 0,1.33333 -0.66667,2 -2,2 -1.33333,0 -2,0.66667 -2,2 0,1.46667 -0.66667,2 -2.5,2 -1.83333,0 -2.5,0.53333 -2.5,2 0,1.33333 -0.66667,2 -2,2 -1.92793,0 -2,-0.66667 -2,-18.5 z m 71,16.5 c 0,-1.33333 -0.66667,-2 -2,-2 -1.33333,0 -2,-0.66667 -2,-2 0,-1.46667 -0.66667,-2 -2.5,-2 -1.83333,0 -2.5,-0.53333 -2.5,-2 0,-1.66667 -0.66667,-2 -4,-2 -3.33333,0 -4,-0.33333 -4,-2 0,-1.66667 -0.66667,-2 -4,-2 -3.33333,0 -4,-0.33333 -4,-2 0,-1.66667 0.66667,-2 4,-2 3.33333,0 4,-0.33333 4,-2 0,-1.66667 0.66667,-2 4,-2 3.6,0 4,-0.25 4,-2.5 0,-2 0.5,-2.5 2.5,-2.5 2.45833,0 2.5,-0.13333 2.5,-8 0,-7.33333 0.16667,-8 2,-8 1.33333,0 2,-0.66667 2,-2 0,-1.33333 -0.66667,-2 -2,-2 -1.33333,0 -2,-0.66667 -2,-2 0,-1.33333 0.66667,-2 2,-2 1.79487,0 2,-0.66667 2,-6.5 0,-5.83333 -0.20513,-6.5 -2,-6.5 -1.33333,0 -2,0.66667 -2,2 0,1.7037 -0.66667,2 -4.5,2 l -4.5,0 0,-4 c 0,-3.33333 -0.33333,-4 -2,-4 -1.33333,0 -2,0.66667 -2,2 0,1.93496 -0.66667,2 -20.5,2 -19.83333,0 -20.5,0.065 -20.5,2 0,1.33333 -0.66667,2 -2,2 -1.7037,0 -2,0.66667 -2,4.5 0,4.13333 -0.2037,4.5 -2.5,4.5 -2,0 -2.5,-0.5 -2.5,-2.5 0,-1.83333 -0.53333,-2.5 -2,-2.5 -1.90805,0 -2,-0.66667 -2,-14.5 0,-13.83333 0.0919,-14.5 2,-14.5 1.66667,0 2,-0.66667 2,-4 0,-3.6 0.25,-4 2.5,-4 1.83333,0 2.5,-0.53333 2.5,-2 0,-1.33333 0.66667,-2 2,-2 1.33333,0 2,-0.66667 2,-2 0,-1.33333 0.66667,-2 2,-2 1.33333,0 2,-0.66667 2,-2 0,-1.66667 0.66667,-2 4,-2 3.33333,0 4,-0.33333 4,-2 0,-1.90805 0.66667,-2 14.5,-2 13.83333,0 14.5,0.0919 14.5,2 0,1.66667 0.66667,2 4,2 3.33333,0 4,0.33333 4,2 0,1.46667 0.66667,2 2.5,2 1.83333,0 2.5,0.53333 2.5,2 0,1.33333 0.66667,2 2,2 1.33333,0 2,0.66667 2,2 0,1.33333 0.66667,2 2,2 1.97193,0 2,0.66667 2,47.5 0,46.83333 -0.0281,47.5 -2,47.5 -1.33333,0 -2,-0.66667 -2,-2 z m -62,-66 c 0,-1.33333 0.66667,-2 2,-2 1.66667,0 2,-0.66667 2,-4 0,-4 0,-4 4,-4 l 4,0 0,-4.5 0,-4.5 4,0 c 3.33333,0 4,-0.33333 4,-2 0,-1.33333 -0.66667,-2 -2,-2 -1.33333,0 -2,-0.66667 -2,-2 0,-1.33333 0.66667,-2 2,-2 1.33333,0 2,-0.66667 2,-2 0,-1.33333 0.66667,-2 2,-2 1.33333,0 2,-0.66667 2,-2 0,-1.46667 0.66667,-2 2.5,-2 1.83333,0 2.5,-0.53333 2.5,-2 0,-1.79487 -0.66667,-2 -6.5,-2 -5.83333,0 -6.5,0.20513 -6.5,2 0,1.66667 -0.66667,2 -4,2 -3.33333,0 -4,0.33333 -4,2 0,1.33333 -0.66667,2 -2,2 -1.33333,0 -2,0.66667 -2,2 0,1.33333 -0.66667,2 -2,2 -1.66667,0 -2,0.66667 -2,4 0,3.6 -0.25,4 -2.5,4 l -2.5,0 0,10.5 0,10.5 2.5,0 c 1.83333,0 2.5,-0.53333 2.5,-2 z"
         id="path3000"
         inkscape:connector-curvature="0" />
      <path
         style="fill:#41313a"
         d="m 364.50003,495.07645 c 0,-17.83333 0.0721,-18.5 2,-18.5 1.92793,0 2,0.66667 2,18.5 0,17.83333 -0.0721,18.5 -2,18.5 -1.92793,0 -2,-0.66667 -2,-18.5 z m 71,2 c 0,-15.83333 -0.0808,-16.5 -2,-16.5 -1.77778,0 -2,-0.66667 -2,-6 0,-5.33333 0.22222,-6 2,-6 1.33333,0 2,-0.66667 2,-2 0,-1.33333 -0.66667,-2 -2,-2 -1.33333,0 -2,-0.66667 -2,-2 0,-1.33333 0.66667,-2 2,-2 1.79487,0 2,-0.66667 2,-6.5 l 0,-6.5 -6.5,0 c -5.83333,0 -6.5,-0.20513 -6.5,-2 0,-1.33333 -0.66667,-2 -2,-2 -1.33333,0 -2,0.66667 -2,2 0,1.94074 -0.66667,2 -22.5,2 -21.83333,0 -22.5,-0.0593 -22.5,-2 0,-1.94074 0.66667,-2 22.5,-2 l 22.5,0 0,-6 c 0,-5.33333 0.22222,-6 2,-6 1.7037,0 2,-0.66667 2,-4.5 0,-3.83333 0.2963,-4.5 2,-4.5 1.7037,0 2,0.66667 2,4.5 0,3.83333 -0.2963,4.5 -2,4.5 -1.77778,0 -2,0.66667 -2,6 0,5.33333 0.22222,6 2,6 1.33333,0 2,-0.66667 2,-2 0,-1.46667 0.66667,-2 2.5,-2 2.25,0 2.5,-0.4 2.5,-4 0,-3.33333 0.33333,-4 2,-4 1.7037,0 2,-0.66667 2,-4.5 0,-3.83333 -0.2963,-4.5 -2,-4.5 -1.33333,0 -2,-0.66667 -2,-2 0,-1.46667 -0.66667,-2 -2.5,-2 -1.83333,0 -2.5,-0.53333 -2.5,-2 0,-1.33333 -0.66667,-2 -2,-2 -1.33333,0 -2,-0.66667 -2,-2 0,-1.33333 -0.66667,-2 -2,-2 -1.33333,0 -2,-0.66667 -2,-2 0,-1.83333 -0.66667,-2 -8,-2 -7.33333,0 -8,-0.16667 -8,-2 0,-1.83333 0.66667,-2 8,-2 7.33333,0 8,0.16667 8,2 0,1.66667 0.66667,2 4,2 3.33333,0 4,0.33333 4,2 0,1.46667 0.66667,2 2.5,2 1.83333,0 2.5,0.53333 2.5,2 0,1.33333 0.66667,2 2,2 1.33333,0 2,0.66667 2,2 0,1.33333 0.66667,2 2,2 1.97193,0 2,0.66667 2,47.5 0,46.83333 -0.0281,47.5 -2,47.5 -1.91919,0 -2,-0.66667 -2,-16.5 z m -54,0.5 0,-4 6,0 c 5.33333,0 6,0.22222 6,2 0,1.66667 -0.66667,2 -4,2 -3.33333,0 -4,0.33333 -4,2 0,1.33333 -0.66667,2 -2,2 -1.66667,0 -2,-0.66667 -2,-4 z m 37,2 c 0,-1.66667 -0.66667,-2 -4,-2 -3.33333,0 -4,-0.33333 -4,-2 0,-1.66667 0.66667,-2 4,-2 3.33333,0 4,-0.33333 4,-2 0,-1.33333 0.66667,-2 2,-2 1.33333,0 2,0.66667 2,2 0,1.33333 -0.66667,2 -2,2 -1.33333,0 -2,0.66667 -2,2 0,1.33333 0.66667,2 2,2 1.33333,0 2,0.66667 2,2 0,1.33333 -0.66667,2 -2,2 -1.33333,0 -2,-0.66667 -2,-2 z m -54,-50 c 0,-5.33333 0.22222,-6 2,-6 1.77778,0 2,0.66667 2,6 0,5.33333 -0.22222,6 -2,6 -1.77778,0 -2,-0.66667 -2,-6 z"
         id="path2998"
         inkscape:connector-curvature="0" />
    </g>
  </g>
</svg>
